<?xml version="1.0" encoding="utf-8"?>
<!-- Generator: Adobe Illustrator 28.2.0, SVG Export Plug-In . SVG Version: 6.00 Build 0)  -->
<svg version="1.1" id="Capa_1" xmlns="http://www.w3.org/2000/svg" xmlns:xlink="http://www.w3.org/1999/xlink" x="0px" y="0px"
	 viewBox="0 0 220 36.2" style="enable-background:new 0 0 381.3 36.2;" xml:space="preserve">
<g>
	<g>
		<g>
			<path d="M182.2,18.8c1-0.6,2.5-1,4.1-1c3,0,4.5,1.6,4.5,3.7c0,1.6-0.7,2.8-1.9,4.1l-4.5,5.2h7.2v1.4h-9.4V31l5-5.9
				c1.3-1.5,1.8-2.2,1.8-3.6c0-1.6-1.3-2.3-2.9-2.3c-0.9,0-1.5,0.1-1.8,0.2c-0.4,0.1-0.5,0.3-0.5,0.7v1.7l-1.6-0.1V18.8z"/>
			<path d="M194.3,30c0.8,0,1.3,0.5,1.3,1.3s-0.5,1.3-1.2,1.3c-0.9,0-1.3-0.5-1.3-1.3S193.6,30,194.3,30z"/>
			<path d="M207.4,25c0,5.2-1.7,7.5-5,7.5c-3.2,0-4.9-2.2-4.9-7.4c0-5.1,1.9-7.4,5-7.4C205.6,17.8,207.4,19.7,207.4,25z M205.7,25.1
				c0-4.6-1.3-5.9-3.1-5.9c-2,0-3.2,1.5-3.2,6.2c0,4.4,1.2,5.7,3.2,5.7C204.4,31.1,205.7,29.8,205.7,25.1z"/>
		</g>
		<g>
			<path d="M142.8,28.2c0,1-0.2,1.2-1.1,1.4l-1.4,0.1v3.2h9.6v-3.4l-2.1-0.2V18.9c0-2.6,1.7-4.8,4.1-4.8c3,0,3.4,2.1,3.4,4.5v9.7
				c0,0.9-0.2,1.1-1,1.2l-1.3,0.1v3.2h9.5v-3.4l-2.1-0.1V18.7c0-2.5,1.7-4.6,4.1-4.6c2.9,0,3.4,1.8,3.4,4.5v9.7
				c0,0.9-0.4,1.2-1.1,1.3l-1.2,0.1v3.2h9.7v-3.4l-2.3-0.1v-12c0-5.1-2.4-7.8-6.7-7.8c-2.9,0-5.2,1.3-6.5,3.9
				c-1.3-2.9-3.5-3.9-6-3.9c-3.1,0-5.2,1.5-6.4,3.8h0v-3.2h-7.1v3.4l1.4,0.1c0.8,0.1,1.1,0.4,1.1,1.4L142.8,28.2L142.8,28.2z
				 M135.9,10.3h-7.4v3.4l1.2,0.1c0.8,0.1,1.1,0.4,1.1,1.4v9.1c0,2.9-2,5-4.6,5c-2.8,0-3.4-1.6-3.4-4.5V10.3h-7.5v3.4l1.2,0.1
				c0.8,0.1,1.1,0.4,1.1,1.3v10.8c0,5.2,2.3,7.7,6.8,7.7c2.8,0,5.2-1.2,6.5-3.5h0.1v2.9h7v-3.2l-1.2-0.1c-0.8-0.1-1-0.4-1-1.4
				L135.9,10.3L135.9,10.3z M104.9,3.9c0,1.8,1.2,3.1,3.1,3.1c1.9,0,3.2-1.3,3.2-3.1c0-1.8-1.3-3-3.2-3
				C106.2,0.9,104.9,2.2,104.9,3.9 M110.9,10.3h-7.6v3.4l1.4,0.1c0.8,0.1,1.1,0.4,1.1,1.4v12.9c0,1.1-0.2,1.4-1,1.5l-1.4,0.1v3.2
				h9.8v-3.4l-2.3-0.2L110.9,10.3L110.9,10.3z M95.1,14.2c0.6,0,0.9,0.1,1.2,0.2c0.3,0.1,0.4,0.4,0.4,1.2v2.8l4.4-0.3v-7.5
				c-1.2-0.6-2.8-0.9-4-0.9c-3.5,0-5.4,2.1-6.2,4h0v-3.4h-7.2v3.4l1.5,0.1c0.7,0.1,1,0.4,1,1.3v13c0,1-0.1,1.4-1.1,1.5l-1.3,0.1v3.2
				h11v-3.4l-3.5-0.2V18.8C91.2,16.2,92.7,14.2,95.1,14.2 M74.2,25.4c0,2.1-1.6,4.1-4.4,4.1c-3.6,0-4.5-3.5-4.5-7
				c0-4.6,1.3-8.7,5.6-8.7c1.3,0,2.6,0.3,3.3,0.6V25.4z M79.2,11.3c-3.1-1.2-6.3-1.5-7.7-1.5c-7.7,0-11.5,5-11.5,12.9
				c0,6.3,2.3,10.9,8.7,10.9c3,0,4.9-1.4,6-3l0.1,0l0.1,2.4h6.4v-3.2l-1.3-0.1c-0.7,0-1-0.4-1-1.3L79.2,11.3L79.2,11.3z M52.7,16.3
				c0,2.7-2.5,3.7-6.3,3.7c-0.6,0-1.1,0-1.7,0c0.3-2.9,1.8-6.3,5.3-6.3C51.6,13.7,52.7,14.4,52.7,16.3 M50.2,9.7
				c-7,0-10.8,5.6-10.8,12.5c0,6.4,2.8,11.3,10.1,11.3c4,0,6.9-1.8,7.6-2.3l-1.5-3.7c-1.1,0.8-3,1.8-5.5,1.8c-3.8,0-5.2-2.6-5.5-5.6
				c7.4,0.3,12.7-1.3,12.7-7.7C57.4,11.8,54.7,9.7,50.2,9.7 M25.4,29.5c-3.6,0-4.5-3.6-4.5-7.6c0-4.4,1.4-8.1,5.4-8.1
				c1.4,0,2.7,0.4,3.4,0.8v10.9C29.7,27.8,28,29.5,25.4,29.5 M34.8,28.2V0.9h-7.5v3.4l1.4,0.1c0.8,0.1,1.1,0.4,1.1,1.3v4.6
				c-1.2-0.4-2.4-0.6-3.8-0.6c-6.6,0-10.2,5.3-10.2,12.6c0,5.9,2,11.1,8.6,11.1c2.3,0,4.5-0.8,6-3l0.2,0l0.1,2.4H37v-3.2l-1.3-0.1
				C34.9,29.5,34.8,29.2,34.8,28.2 M4.9,3.9C4.9,5.7,6.1,7,8,7c1.9,0,3.2-1.3,3.2-3.1c0-1.8-1.4-3-3.2-3C6.2,0.9,4.9,2.2,4.9,3.9
				 M10.9,10.3H3.2v3.4l1.4,0.1c0.8,0.1,1.1,0.4,1.1,1.4v12.9c0,1.1-0.2,1.4-1,1.5l-1.4,0.1v3.2h9.9v-3.4l-2.3-0.2L10.9,10.3
				L10.9,10.3z"/>
		</g>
	</g>
</g>
</svg>
